<svg xmlns="http://www.w3.org/2000/svg" xmlns:xlink="http://www.w3.org/1999/xlink" width="500" zoomAndPan="magnify" viewBox="0 0 375 149.999998" height="200" preserveAspectRatio="xMidYMid meet" version="1.0"><defs><g/><clipPath id="001a0781fd"><path d="M 61 28 L 315.945312 28 L 315.945312 93 L 61 93 Z M 61 28 " clip-rule="nonzero"/></clipPath></defs><g clip-path="url(#001a0781fd)"><path fill="#ff3131" d="M 270.269531 62.222656 L 275.492188 72.167969 C 275.492188 72.167969 269.382812 67.28125 267.527344 64.753906 C 266.097656 62.8125 264.199219 60.496094 262.007812 59.441406 C 261.375 59.738281 260.828125 59.992188 260.617188 60.117188 C 253.03125 65.554688 251.011719 66.015625 244.015625 59.863281 C 241.824219 57.925781 240.601562 54.679688 235.332031 51.984375 C 234.914062 51.773438 233.5625 51.269531 232.214844 50.847656 C 233.101562 52.320312 234.40625 54.007812 235.925781 55.1875 C 233.480469 54.640625 231.457031 53.5 229.8125 51.984375 C 229.179688 51.394531 228.632812 51.015625 228.210938 50.71875 C 227.582031 51.394531 226.988281 52.53125 226.398438 53.078125 C 225.980469 53.457031 225.640625 53.878906 225.304688 54.300781 C 224.460938 54.890625 223.449219 55.609375 222.734375 56.113281 C 221.257812 57.210938 212.578125 56.242188 213.632812 57.800781 C 214.726562 59.359375 216.792969 63.699219 219.828125 66.945312 C 220.207031 67.324219 223.578125 70.863281 229.898438 75.035156 C 224.589844 73.9375 220.796875 72.378906 217.59375 69.304688 C 215.023438 66.816406 212.957031 63.910156 210.722656 61.128906 C 205.5 54.597656 200.355469 46.546875 193.65625 41.574219 C 192.605469 43.683594 197.871094 53.667969 196.816406 55.777344 C 194.710938 53.667969 185.609375 42.542969 184.300781 39.847656 C 180.679688 46.167969 175.15625 52.910156 170.015625 58.011719 C 168.121094 59.90625 160.113281 74.488281 158.007812 76.214844 C 157.207031 75.371094 162.769531 61.59375 161.96875 60.75 C 159.902344 58.640625 158.554688 58.8125 156.488281 56.703125 C 152.234375 50.507812 148.0625 56.535156 146.164062 58.472656 C 125.179688 79.964844 129.183594 77.941406 126.359375 84.054688 C 126.023438 84.8125 124.757812 83.925781 124.757812 83.082031 C 124.714844 77.984375 123.410156 72.886719 121.007812 68.417969 C 118.816406 67.027344 118.140625 63.152344 116.078125 62.097656 C 111.527344 65.765625 103.8125 73.519531 105.203125 69.9375 C 105.921875 68.082031 107.226562 66.101562 108.660156 64.332031 C 106.214844 65.847656 103.855469 67.746094 102.210938 69.007812 C 100.652344 70.1875 99.261719 71.539062 97.914062 72.929688 C 89.316406 81.988281 77.476562 87.003906 65.929688 91.765625 C 64.453125 92.355469 62.601562 92.902344 61.460938 91.808594 C 65.71875 91.132812 70.101562 88.730469 76.042969 85.652344 C 82.871094 82.15625 90.917969 72.632812 97.113281 68.164062 C 102 64.625 106.34375 60.371094 110.34375 55.859375 C 113.421875 52.40625 118.4375 56.28125 121.261719 58.429688 C 124.210938 60.664062 125.8125 66.480469 127.792969 69.597656 C 134.027344 64.5 142.878906 57.335938 149.15625 52.238281 C 150.082031 51.476562 151.09375 50.675781 152.273438 50.46875 C 153.539062 50.257812 154.761719 50.71875 155.941406 51.226562 C 159.269531 52.53125 162.558594 53.878906 165.886719 55.1875 C 174.484375 47.894531 181.097656 38.921875 186.621094 29.058594 C 190.539062 27.921875 192.984375 31.589844 194.921875 35.171875 C 199.21875 43.09375 207.351562 48.066406 214.980469 51.859375 C 215.78125 52.238281 216.453125 52.953125 217.339844 53.078125 C 219.109375 53.289062 220.710938 53.289062 222.144531 52.195312 C 224.378906 50.507812 225.894531 47.894531 229.097656 45.789062 C 231.753906 45.789062 238.367188 50.296875 241.65625 52.996094 C 248.648438 58.769531 248.480469 61.675781 256.867188 57 C 257.542969 56.621094 258.175781 56.199219 258.722656 55.691406 C 260.535156 54.007812 263.863281 51.519531 266.179688 51.898438 C 267.570312 52.152344 272.964844 57.96875 274.0625 58.9375 C 280.339844 64.375 282.320312 64.710938 287.796875 70.988281 C 300.273438 85.316406 303.644531 85.316406 315.273438 92.398438 C 299.007812 89.617188 286.449219 72.800781 272.417969 64.078125 C 272.164062 63.992188 271.320312 63.195312 270.269531 62.222656 Z M 270.269531 62.222656 " fill-opacity="1" fill-rule="nonzero"/></g><g fill="#ff3131" fill-opacity="1"><g transform="translate(15.21201, 117.279498)"><g><path d="M 1.484375 0 L 1.484375 -15.21875 L 6.671875 -15.21875 C 8.460938 -15.21875 9.929688 -14.898438 11.078125 -14.265625 C 12.234375 -13.640625 13.085938 -12.757812 13.640625 -11.625 C 14.203125 -10.488281 14.484375 -9.148438 14.484375 -7.609375 C 14.484375 -6.078125 14.203125 -4.738281 13.640625 -3.59375 C 13.085938 -2.457031 12.234375 -1.570312 11.078125 -0.9375 C 9.929688 -0.3125 8.460938 0 6.671875 0 Z M 4.265625 -2.390625 L 6.546875 -2.390625 C 7.816406 -2.390625 8.820312 -2.59375 9.5625 -3 C 10.300781 -3.414062 10.832031 -4.007812 11.15625 -4.78125 C 11.476562 -5.5625 11.640625 -6.503906 11.640625 -7.609375 C 11.640625 -8.703125 11.476562 -9.640625 11.15625 -10.421875 C 10.832031 -11.203125 10.300781 -11.800781 9.5625 -12.21875 C 8.820312 -12.644531 7.816406 -12.859375 6.546875 -12.859375 L 4.265625 -12.859375 Z M 4.265625 -2.390625 "/></g></g></g><g fill="#ff3131" fill-opacity="1"><g transform="translate(30.671485, 117.279498)"><g><path d="M 0.5 0 L 6.0625 -15.21875 L 9.203125 -15.21875 L 14.765625 0 L 11.8125 0 L 10.59375 -3.53125 L 4.65625 -3.53125 L 3.421875 0 Z M 5.421875 -5.703125 L 9.828125 -5.703125 L 7.609375 -12.03125 Z M 5.421875 -5.703125 "/></g></g></g><g fill="#ff3131" fill-opacity="1"><g transform="translate(45.913538, 117.279498)"><g><path d="M 5.890625 0 L 0.328125 -15.21875 L 3.3125 -15.21875 L 7.609375 -2.84375 L 11.9375 -15.21875 L 14.875 -15.21875 L 9.3125 0 Z M 5.890625 0 "/></g></g></g><g fill="#ff3131" fill-opacity="1"><g transform="translate(61.112096, 117.279498)"><g><path d="M 1.484375 0 L 1.484375 -15.21875 L 4.265625 -15.21875 L 4.265625 0 Z M 1.484375 0 "/></g></g></g><g fill="#ff3131" fill-opacity="1"><g transform="translate(66.852324, 117.279498)"><g><path d="M 1.484375 0 L 1.484375 -15.21875 L 6.671875 -15.21875 C 8.460938 -15.21875 9.929688 -14.898438 11.078125 -14.265625 C 12.234375 -13.640625 13.085938 -12.757812 13.640625 -11.625 C 14.203125 -10.488281 14.484375 -9.148438 14.484375 -7.609375 C 14.484375 -6.078125 14.203125 -4.738281 13.640625 -3.59375 C 13.085938 -2.457031 12.234375 -1.570312 11.078125 -0.9375 C 9.929688 -0.3125 8.460938 0 6.671875 0 Z M 4.265625 -2.390625 L 6.546875 -2.390625 C 7.816406 -2.390625 8.820312 -2.59375 9.5625 -3 C 10.300781 -3.414062 10.832031 -4.007812 11.15625 -4.78125 C 11.476562 -5.5625 11.640625 -6.503906 11.640625 -7.609375 C 11.640625 -8.703125 11.476562 -9.640625 11.15625 -10.421875 C 10.832031 -11.203125 10.300781 -11.800781 9.5625 -12.21875 C 8.820312 -12.644531 7.816406 -12.859375 6.546875 -12.859375 L 4.265625 -12.859375 Z M 4.265625 -2.390625 "/></g></g></g><g fill="#ff3131" fill-opacity="1"><g transform="translate(82.311799, 117.279498)"><g/></g></g><g fill="#ff3131" fill-opacity="1"><g transform="translate(87.486699, 117.279498)"><g><path d="M 1.484375 0 L 1.484375 -15.21875 L 7.0625 -15.21875 C 8.28125 -15.21875 9.285156 -15.007812 10.078125 -14.59375 C 10.867188 -14.1875 11.457031 -13.628906 11.84375 -12.921875 C 12.238281 -12.222656 12.4375 -11.445312 12.4375 -10.59375 C 12.4375 -9.664062 12.191406 -8.816406 11.703125 -8.046875 C 11.222656 -7.273438 10.46875 -6.71875 9.4375 -6.375 L 12.59375 0 L 9.390625 0 L 6.5625 -6 L 4.265625 -6 L 4.265625 0 Z M 4.265625 -8.046875 L 6.890625 -8.046875 C 7.816406 -8.046875 8.5 -8.269531 8.9375 -8.71875 C 9.375 -9.164062 9.59375 -9.757812 9.59375 -10.5 C 9.59375 -11.226562 9.378906 -11.804688 8.953125 -12.234375 C 8.523438 -12.671875 7.832031 -12.890625 6.875 -12.890625 L 4.265625 -12.890625 Z M 4.265625 -8.046875 "/></g></g></g><g fill="#ff3131" fill-opacity="1"><g transform="translate(101.03277, 117.279498)"><g><path d="M 0.5 0 L 6.0625 -15.21875 L 9.203125 -15.21875 L 14.765625 0 L 11.8125 0 L 10.59375 -3.53125 L 4.65625 -3.53125 L 3.421875 0 Z M 5.421875 -5.703125 L 9.828125 -5.703125 L 7.609375 -12.03125 Z M 5.421875 -5.703125 "/></g></g></g><g fill="#ff3131" fill-opacity="1"><g transform="translate(116.274823, 117.279498)"><g><path d="M 5.421875 0 L 5.421875 -5.421875 L 0.296875 -15.21875 L 3.453125 -15.21875 L 6.828125 -8.203125 L 10.171875 -15.21875 L 13.296875 -15.21875 L 8.203125 -5.421875 L 8.203125 0 Z M 5.421875 0 "/></g></g></g><g fill="#ff3131" fill-opacity="1"><g transform="translate(129.864388, 117.279498)"><g><path d="M 6.671875 0.265625 C 5.554688 0.265625 4.570312 0.0703125 3.71875 -0.3125 C 2.863281 -0.695312 2.1875 -1.25 1.6875 -1.96875 C 1.195312 -2.6875 0.945312 -3.5625 0.9375 -4.59375 L 3.875 -4.59375 C 3.90625 -3.882812 4.160156 -3.285156 4.640625 -2.796875 C 5.128906 -2.304688 5.800781 -2.0625 6.65625 -2.0625 C 7.394531 -2.0625 7.976562 -2.238281 8.40625 -2.59375 C 8.84375 -2.945312 9.0625 -3.425781 9.0625 -4.03125 C 9.0625 -4.644531 8.867188 -5.125 8.484375 -5.46875 C 8.109375 -5.820312 7.597656 -6.109375 6.953125 -6.328125 C 6.316406 -6.546875 5.640625 -6.78125 4.921875 -7.03125 C 3.742188 -7.4375 2.847656 -7.957031 2.234375 -8.59375 C 1.617188 -9.226562 1.3125 -10.078125 1.3125 -11.140625 C 1.289062 -12.035156 1.5 -12.804688 1.9375 -13.453125 C 2.382812 -14.097656 2.992188 -14.597656 3.765625 -14.953125 C 4.535156 -15.304688 5.421875 -15.484375 6.421875 -15.484375 C 7.429688 -15.484375 8.320312 -15.300781 9.09375 -14.9375 C 9.875 -14.582031 10.484375 -14.078125 10.921875 -13.421875 C 11.367188 -12.765625 11.609375 -11.988281 11.640625 -11.09375 L 8.65625 -11.09375 C 8.644531 -11.625 8.4375 -12.097656 8.03125 -12.515625 C 7.632812 -12.929688 7.082031 -13.140625 6.375 -13.140625 C 5.757812 -13.148438 5.242188 -13 4.828125 -12.6875 C 4.421875 -12.375 4.21875 -11.921875 4.21875 -11.328125 C 4.21875 -10.828125 4.375 -10.425781 4.6875 -10.125 C 5.007812 -9.820312 5.445312 -9.566406 6 -9.359375 C 6.550781 -9.160156 7.179688 -8.945312 7.890625 -8.71875 C 8.648438 -8.457031 9.335938 -8.148438 9.953125 -7.796875 C 10.578125 -7.453125 11.078125 -6.992188 11.453125 -6.421875 C 11.835938 -5.847656 12.03125 -5.113281 12.03125 -4.21875 C 12.03125 -3.414062 11.828125 -2.675781 11.421875 -2 C 11.015625 -1.320312 10.410156 -0.773438 9.609375 -0.359375 C 8.816406 0.0546875 7.835938 0.265625 6.671875 0.265625 Z M 6.671875 0.265625 "/></g></g></g><g fill="#ff3131" fill-opacity="1"><g transform="translate(142.845133, 117.279498)"><g/></g></g><g fill="#ff3131" fill-opacity="1"><g transform="translate(148.020033, 117.279498)"><g><path d="M 1.484375 0 L 1.484375 -15.21875 L 6.671875 -15.21875 C 8.460938 -15.21875 9.929688 -14.898438 11.078125 -14.265625 C 12.234375 -13.640625 13.085938 -12.757812 13.640625 -11.625 C 14.203125 -10.488281 14.484375 -9.148438 14.484375 -7.609375 C 14.484375 -6.078125 14.203125 -4.738281 13.640625 -3.59375 C 13.085938 -2.457031 12.234375 -1.570312 11.078125 -0.9375 C 9.929688 -0.3125 8.460938 0 6.671875 0 Z M 4.265625 -2.390625 L 6.546875 -2.390625 C 7.816406 -2.390625 8.820312 -2.59375 9.5625 -3 C 10.300781 -3.414062 10.832031 -4.007812 11.15625 -4.78125 C 11.476562 -5.5625 11.640625 -6.503906 11.640625 -7.609375 C 11.640625 -8.703125 11.476562 -9.640625 11.15625 -10.421875 C 10.832031 -11.203125 10.300781 -11.800781 9.5625 -12.21875 C 8.820312 -12.644531 7.816406 -12.859375 6.546875 -12.859375 L 4.265625 -12.859375 Z M 4.265625 -2.390625 "/></g></g></g><g fill="#ff3131" fill-opacity="1"><g transform="translate(163.479508, 117.279498)"><g><path d="M 0.5 0 L 6.0625 -15.21875 L 9.203125 -15.21875 L 14.765625 0 L 11.8125 0 L 10.59375 -3.53125 L 4.65625 -3.53125 L 3.421875 0 Z M 5.421875 -5.703125 L 9.828125 -5.703125 L 7.609375 -12.03125 Z M 5.421875 -5.703125 "/></g></g></g><g fill="#ff3131" fill-opacity="1"><g transform="translate(178.721561, 117.279498)"><g><path d="M 1.484375 0 L 1.484375 -15.21875 L 4.78125 -15.21875 L 9.640625 -5.5625 L 14.421875 -15.21875 L 17.71875 -15.21875 L 17.71875 0 L 14.9375 0 L 14.9375 -10.5 L 10.703125 -2.171875 L 8.5 -2.171875 L 4.265625 -10.5 L 4.265625 0 Z M 1.484375 0 "/></g></g></g><g fill="#ff3131" fill-opacity="1"><g transform="translate(197.920887, 117.279498)"><g><path d="M 1.484375 0 L 1.484375 -15.21875 L 7.109375 -15.21875 C 8.328125 -15.21875 9.332031 -15.015625 10.125 -14.609375 C 10.925781 -14.203125 11.519531 -13.644531 11.90625 -12.9375 C 12.300781 -12.226562 12.5 -11.429688 12.5 -10.546875 C 12.5 -9.703125 12.3125 -8.925781 11.9375 -8.21875 C 11.5625 -7.519531 10.972656 -6.957031 10.171875 -6.53125 C 9.378906 -6.101562 8.359375 -5.890625 7.109375 -5.890625 L 4.265625 -5.890625 L 4.265625 0 Z M 4.265625 -8.15625 L 6.9375 -8.15625 C 7.90625 -8.15625 8.601562 -8.367188 9.03125 -8.796875 C 9.457031 -9.222656 9.671875 -9.804688 9.671875 -10.546875 C 9.671875 -11.304688 9.457031 -11.898438 9.03125 -12.328125 C 8.601562 -12.753906 7.90625 -12.96875 6.9375 -12.96875 L 4.265625 -12.96875 Z M 4.265625 -8.15625 "/></g></g></g><g fill="#ff3131" fill-opacity="1"><g transform="translate(211.119069, 117.279498)"><g><path d="M 1.484375 0 L 1.484375 -15.21875 L 7.109375 -15.21875 C 8.328125 -15.21875 9.332031 -15.015625 10.125 -14.609375 C 10.925781 -14.203125 11.519531 -13.644531 11.90625 -12.9375 C 12.300781 -12.226562 12.5 -11.429688 12.5 -10.546875 C 12.5 -9.703125 12.3125 -8.925781 11.9375 -8.21875 C 11.5625 -7.519531 10.972656 -6.957031 10.171875 -6.53125 C 9.378906 -6.101562 8.359375 -5.890625 7.109375 -5.890625 L 4.265625 -5.890625 L 4.265625 0 Z M 4.265625 -8.15625 L 6.9375 -8.15625 C 7.90625 -8.15625 8.601562 -8.367188 9.03125 -8.796875 C 9.457031 -9.222656 9.671875 -9.804688 9.671875 -10.546875 C 9.671875 -11.304688 9.457031 -11.898438 9.03125 -12.328125 C 8.601562 -12.753906 7.90625 -12.96875 6.9375 -12.96875 L 4.265625 -12.96875 Z M 4.265625 -8.15625 "/></g></g></g><g fill="#ff3131" fill-opacity="1"><g transform="translate(224.317252, 117.279498)"><g><path d="M 1.484375 0 L 1.484375 -15.21875 L 7.0625 -15.21875 C 8.28125 -15.21875 9.285156 -15.007812 10.078125 -14.59375 C 10.867188 -14.1875 11.457031 -13.628906 11.84375 -12.921875 C 12.238281 -12.222656 12.4375 -11.445312 12.4375 -10.59375 C 12.4375 -9.664062 12.191406 -8.816406 11.703125 -8.046875 C 11.222656 -7.273438 10.46875 -6.71875 9.4375 -6.375 L 12.59375 0 L 9.390625 0 L 6.5625 -6 L 4.265625 -6 L 4.265625 0 Z M 4.265625 -8.046875 L 6.890625 -8.046875 C 7.816406 -8.046875 8.5 -8.269531 8.9375 -8.71875 C 9.375 -9.164062 9.59375 -9.757812 9.59375 -10.5 C 9.59375 -11.226562 9.378906 -11.804688 8.953125 -12.234375 C 8.523438 -12.671875 7.832031 -12.890625 6.875 -12.890625 L 4.265625 -12.890625 Z M 4.265625 -8.046875 "/></g></g></g><g fill="#ff3131" fill-opacity="1"><g transform="translate(237.863323, 117.279498)"><g><path d="M 8.609375 0.265625 C 7.085938 0.265625 5.757812 -0.0664062 4.625 -0.734375 C 3.488281 -1.398438 2.597656 -2.320312 1.953125 -3.5 C 1.304688 -4.6875 0.984375 -6.054688 0.984375 -7.609375 C 0.984375 -9.160156 1.304688 -10.523438 1.953125 -11.703125 C 2.597656 -12.890625 3.488281 -13.816406 4.625 -14.484375 C 5.757812 -15.148438 7.085938 -15.484375 8.609375 -15.484375 C 10.117188 -15.484375 11.445312 -15.148438 12.59375 -14.484375 C 13.738281 -13.816406 14.628906 -12.890625 15.265625 -11.703125 C 15.898438 -10.523438 16.21875 -9.160156 16.21875 -7.609375 C 16.21875 -6.054688 15.898438 -4.6875 15.265625 -3.5 C 14.628906 -2.320312 13.738281 -1.398438 12.59375 -0.734375 C 11.445312 -0.0664062 10.117188 0.265625 8.609375 0.265625 Z M 8.609375 -2.234375 C 10.054688 -2.234375 11.210938 -2.710938 12.078125 -3.671875 C 12.941406 -4.628906 13.375 -5.941406 13.375 -7.609375 C 13.375 -9.273438 12.941406 -10.585938 12.078125 -11.546875 C 11.210938 -12.503906 10.054688 -12.984375 8.609375 -12.984375 C 7.160156 -12.984375 6 -12.503906 5.125 -11.546875 C 4.257812 -10.585938 3.828125 -9.273438 3.828125 -7.609375 C 3.828125 -5.941406 4.257812 -4.628906 5.125 -3.671875 C 6 -2.710938 7.160156 -2.234375 8.609375 -2.234375 Z M 8.609375 -2.234375 "/></g></g></g><g fill="#ff3131" fill-opacity="1"><g transform="translate(255.062274, 117.279498)"><g><path d="M 8.609375 0.265625 C 7.085938 0.265625 5.757812 -0.0664062 4.625 -0.734375 C 3.488281 -1.398438 2.597656 -2.320312 1.953125 -3.5 C 1.304688 -4.6875 0.984375 -6.054688 0.984375 -7.609375 C 0.984375 -9.160156 1.304688 -10.523438 1.953125 -11.703125 C 2.597656 -12.890625 3.488281 -13.816406 4.625 -14.484375 C 5.757812 -15.148438 7.085938 -15.484375 8.609375 -15.484375 C 10.117188 -15.484375 11.445312 -15.148438 12.59375 -14.484375 C 13.738281 -13.816406 14.628906 -12.890625 15.265625 -11.703125 C 15.898438 -10.523438 16.21875 -9.160156 16.21875 -7.609375 C 16.21875 -6.054688 15.898438 -4.6875 15.265625 -3.5 C 14.628906 -2.320312 13.738281 -1.398438 12.59375 -0.734375 C 11.445312 -0.0664062 10.117188 0.265625 8.609375 0.265625 Z M 8.609375 -2.234375 C 10.054688 -2.234375 11.210938 -2.710938 12.078125 -3.671875 C 12.941406 -4.628906 13.375 -5.941406 13.375 -7.609375 C 13.375 -9.273438 12.941406 -10.585938 12.078125 -11.546875 C 11.210938 -12.503906 10.054688 -12.984375 8.609375 -12.984375 C 7.160156 -12.984375 6 -12.503906 5.125 -11.546875 C 4.257812 -10.585938 3.828125 -9.273438 3.828125 -7.609375 C 3.828125 -5.941406 4.257812 -4.628906 5.125 -3.671875 C 6 -2.710938 7.160156 -2.234375 8.609375 -2.234375 Z M 8.609375 -2.234375 "/></g></g></g><g fill="#ff3131" fill-opacity="1"><g transform="translate(272.261224, 117.279498)"><g><path d="M 1.484375 0 L 1.484375 -15.21875 L 11.3125 -15.21875 L 11.3125 -12.984375 L 4.265625 -12.984375 L 4.265625 -8.71875 L 9.96875 -8.71875 L 9.96875 -6.53125 L 4.265625 -6.53125 L 4.265625 0 Z M 1.484375 0 "/></g></g></g><g fill="#ff3131" fill-opacity="1"><g transform="translate(284.241796, 117.279498)"><g><path d="M 1.484375 0 L 1.484375 -15.21875 L 4.265625 -15.21875 L 4.265625 0 Z M 1.484375 0 "/></g></g></g><g fill="#ff3131" fill-opacity="1"><g transform="translate(289.982024, 117.279498)"><g><path d="M 1.484375 0 L 1.484375 -15.21875 L 4.265625 -15.21875 L 11.421875 -4.5 L 11.421875 -15.21875 L 14.203125 -15.21875 L 14.203125 0 L 11.421875 0 L 4.265625 -10.703125 L 4.265625 0 Z M 1.484375 0 "/></g></g></g><g fill="#ff3131" fill-opacity="1"><g transform="translate(305.658953, 117.279498)"><g><path d="M 8.140625 0.265625 C 6.703125 0.265625 5.445312 -0.0625 4.375 -0.71875 C 3.300781 -1.375 2.46875 -2.285156 1.875 -3.453125 C 1.28125 -4.617188 0.984375 -5.976562 0.984375 -7.53125 C 0.984375 -9.09375 1.289062 -10.472656 1.90625 -11.671875 C 2.519531 -12.867188 3.394531 -13.800781 4.53125 -14.46875 C 5.675781 -15.144531 7.03125 -15.484375 8.59375 -15.484375 C 10.375 -15.484375 11.851562 -15.054688 13.03125 -14.203125 C 14.207031 -13.347656 14.96875 -12.164062 15.3125 -10.65625 L 12.203125 -10.65625 C 11.972656 -11.363281 11.550781 -11.914062 10.9375 -12.3125 C 10.332031 -12.71875 9.550781 -12.921875 8.59375 -12.921875 C 7.070312 -12.921875 5.894531 -12.4375 5.0625 -11.46875 C 4.238281 -10.507812 3.828125 -9.1875 3.828125 -7.5 C 3.828125 -5.820312 4.234375 -4.519531 5.046875 -3.59375 C 5.867188 -2.675781 6.984375 -2.21875 8.390625 -2.21875 C 9.773438 -2.21875 10.816406 -2.585938 11.515625 -3.328125 C 12.222656 -4.078125 12.644531 -5.0625 12.78125 -6.28125 L 8.9375 -6.28125 L 8.9375 -8.375 L 15.59375 -8.375 L 15.59375 0 L 13.03125 0 L 12.8125 -2 C 12.320312 -1.269531 11.707031 -0.707031 10.96875 -0.3125 C 10.226562 0.0703125 9.285156 0.265625 8.140625 0.265625 Z M 8.140625 0.265625 "/></g></g></g><g fill="#ff3131" fill-opacity="1"><g transform="translate(322.466505, 117.279498)"><g/></g></g><g fill="#ff3131" fill-opacity="1"><g transform="translate(327.641405, 117.279498)"><g><path d="M 1.484375 0 L 1.484375 -15.21875 L 4.265625 -15.21875 L 4.265625 0 Z M 1.484375 0 "/></g></g></g><g fill="#ff3131" fill-opacity="1"><g transform="translate(333.381632, 117.279498)"><g><path d="M 1.484375 0 L 1.484375 -15.21875 L 4.265625 -15.21875 L 11.421875 -4.5 L 11.421875 -15.21875 L 14.203125 -15.21875 L 14.203125 0 L 11.421875 0 L 4.265625 -10.703125 L 4.265625 0 Z M 1.484375 0 "/></g></g></g><g fill="#ff3131" fill-opacity="1"><g transform="translate(349.058561, 117.279498)"><g><path d="M 8.375 0.265625 C 6.832031 0.265625 5.507812 -0.0625 4.40625 -0.71875 C 3.3125 -1.382812 2.46875 -2.304688 1.875 -3.484375 C 1.28125 -4.671875 0.984375 -6.039062 0.984375 -7.59375 C 0.984375 -9.144531 1.28125 -10.515625 1.875 -11.703125 C 2.46875 -12.890625 3.3125 -13.816406 4.40625 -14.484375 C 5.507812 -15.148438 6.832031 -15.484375 8.375 -15.484375 C 10.195312 -15.484375 11.691406 -15.03125 12.859375 -14.125 C 14.023438 -13.21875 14.753906 -11.945312 15.046875 -10.3125 L 11.984375 -10.3125 C 11.796875 -11.132812 11.394531 -11.78125 10.78125 -12.25 C 10.164062 -12.726562 9.347656 -12.96875 8.328125 -12.96875 C 6.921875 -12.96875 5.816406 -12.488281 5.015625 -11.53125 C 4.222656 -10.570312 3.828125 -9.257812 3.828125 -7.59375 C 3.828125 -5.925781 4.222656 -4.613281 5.015625 -3.65625 C 5.816406 -2.707031 6.921875 -2.234375 8.328125 -2.234375 C 9.347656 -2.234375 10.164062 -2.453125 10.78125 -2.890625 C 11.394531 -3.335938 11.796875 -3.953125 11.984375 -4.734375 L 15.046875 -4.734375 C 14.753906 -3.171875 14.023438 -1.945312 12.859375 -1.0625 C 11.691406 -0.175781 10.195312 0.265625 8.375 0.265625 Z M 8.375 0.265625 "/></g></g></g><g fill="#ff3131" fill-opacity="1"><g transform="translate(365.083348, 117.279498)"><g><path d="M 2.609375 0.15625 C 2.097656 0.15625 1.679688 -0.00390625 1.359375 -0.328125 C 1.035156 -0.648438 0.875 -1.035156 0.875 -1.484375 C 0.875 -1.941406 1.035156 -2.328125 1.359375 -2.640625 C 1.679688 -2.960938 2.097656 -3.125 2.609375 -3.125 C 3.117188 -3.125 3.535156 -2.960938 3.859375 -2.640625 C 4.179688 -2.328125 4.34375 -1.941406 4.34375 -1.484375 C 4.34375 -1.035156 4.179688 -0.648438 3.859375 -0.328125 C 3.535156 -0.00390625 3.117188 0.15625 2.609375 0.15625 Z M 2.609375 0.15625 "/></g></g></g><g fill="#ffffff" fill-opacity="1"><g transform="translate(75.07862, 140.85734)"><g><path d="M 5.84375 0.234375 C 4.863281 0.234375 4 0.0664062 3.25 -0.265625 C 2.5 -0.609375 1.910156 -1.09375 1.484375 -1.71875 C 1.054688 -2.351562 0.832031 -3.117188 0.8125 -4.015625 L 3.390625 -4.015625 C 3.410156 -3.390625 3.632812 -2.863281 4.0625 -2.4375 C 4.488281 -2.019531 5.078125 -1.8125 5.828125 -1.8125 C 6.472656 -1.8125 6.984375 -1.960938 7.359375 -2.265625 C 7.742188 -2.578125 7.9375 -2.992188 7.9375 -3.515625 C 7.9375 -4.066406 7.765625 -4.492188 7.421875 -4.796875 C 7.085938 -5.097656 6.640625 -5.34375 6.078125 -5.53125 C 5.523438 -5.726562 4.929688 -5.929688 4.296875 -6.140625 C 3.273438 -6.503906 2.492188 -6.960938 1.953125 -7.515625 C 1.410156 -8.078125 1.140625 -8.820312 1.140625 -9.75 C 1.128906 -10.53125 1.316406 -11.203125 1.703125 -11.765625 C 2.085938 -12.335938 2.613281 -12.773438 3.28125 -13.078125 C 3.957031 -13.390625 4.734375 -13.546875 5.609375 -13.546875 C 6.503906 -13.546875 7.289062 -13.382812 7.96875 -13.0625 C 8.644531 -12.75 9.175781 -12.304688 9.5625 -11.734375 C 9.945312 -11.171875 10.15625 -10.492188 10.1875 -9.703125 L 7.578125 -9.703125 C 7.566406 -10.171875 7.382812 -10.585938 7.03125 -10.953125 C 6.6875 -11.316406 6.203125 -11.5 5.578125 -11.5 C 5.046875 -11.507812 4.597656 -11.378906 4.234375 -11.109375 C 3.867188 -10.835938 3.6875 -10.441406 3.6875 -9.921875 C 3.6875 -9.472656 3.828125 -9.117188 4.109375 -8.859375 C 4.390625 -8.597656 4.769531 -8.378906 5.25 -8.203125 C 5.726562 -8.023438 6.28125 -7.832031 6.90625 -7.625 C 7.5625 -7.394531 8.160156 -7.128906 8.703125 -6.828125 C 9.253906 -6.523438 9.695312 -6.125 10.03125 -5.625 C 10.363281 -5.125 10.53125 -4.476562 10.53125 -3.6875 C 10.53125 -2.988281 10.347656 -2.34375 9.984375 -1.75 C 9.628906 -1.15625 9.101562 -0.675781 8.40625 -0.3125 C 7.707031 0.0507812 6.851562 0.234375 5.84375 0.234375 Z M 5.84375 0.234375 "/></g></g></g><g fill="#ffffff" fill-opacity="1"><g transform="translate(86.433287, 140.85734)"><g><path d="M 1.296875 0 L 1.296875 -13.328125 L 9.984375 -13.328125 L 9.984375 -11.359375 L 3.734375 -11.359375 L 3.734375 -7.703125 L 9.421875 -7.703125 L 9.421875 -5.796875 L 3.734375 -5.796875 L 3.734375 -1.953125 L 9.984375 -1.953125 L 9.984375 0 Z M 1.296875 0 "/></g></g></g><g fill="#ffffff" fill-opacity="1"><g transform="translate(97.426584, 140.85734)"><g><path d="M 1.296875 0 L 1.296875 -13.328125 L 6.1875 -13.328125 C 7.25 -13.328125 8.125 -13.144531 8.8125 -12.78125 C 9.507812 -12.414062 10.03125 -11.925781 10.375 -11.3125 C 10.71875 -10.695312 10.890625 -10.015625 10.890625 -9.265625 C 10.890625 -8.453125 10.675781 -7.707031 10.25 -7.03125 C 9.820312 -6.363281 9.160156 -5.878906 8.265625 -5.578125 L 11.015625 0 L 8.21875 0 L 5.75 -5.25 L 3.734375 -5.25 L 3.734375 0 Z M 3.734375 -7.046875 L 6.03125 -7.046875 C 6.84375 -7.046875 7.4375 -7.238281 7.8125 -7.625 C 8.195312 -8.019531 8.390625 -8.539062 8.390625 -9.1875 C 8.390625 -9.820312 8.203125 -10.328125 7.828125 -10.703125 C 7.453125 -11.085938 6.847656 -11.28125 6.015625 -11.28125 L 3.734375 -11.28125 Z M 3.734375 -7.046875 "/></g></g></g><g fill="#ffffff" fill-opacity="1"><g transform="translate(109.275762, 140.85734)"><g><path d="M 5.15625 0 L 0.28125 -13.328125 L 2.890625 -13.328125 L 6.65625 -2.5 L 10.453125 -13.328125 L 13.015625 -13.328125 L 8.140625 0 Z M 5.15625 0 "/></g></g></g><g fill="#ffffff" fill-opacity="1"><g transform="translate(122.57042, 140.85734)"><g><path d="M 1.296875 0 L 1.296875 -13.328125 L 3.734375 -13.328125 L 3.734375 0 Z M 1.296875 0 "/></g></g></g><g fill="#ffffff" fill-opacity="1"><g transform="translate(127.591584, 140.85734)"><g><path d="M 1.296875 0 L 1.296875 -13.328125 L 3.734375 -13.328125 L 9.984375 -3.9375 L 9.984375 -13.328125 L 12.421875 -13.328125 L 12.421875 0 L 9.984375 0 L 3.734375 -9.359375 L 3.734375 0 Z M 1.296875 0 "/></g></g></g><g fill="#ffffff" fill-opacity="1"><g transform="translate(141.304672, 140.85734)"><g><path d="M 7.125 0.234375 C 5.863281 0.234375 4.765625 -0.0507812 3.828125 -0.625 C 2.890625 -1.195312 2.160156 -1.992188 1.640625 -3.015625 C 1.117188 -4.035156 0.859375 -5.222656 0.859375 -6.578125 C 0.859375 -7.953125 1.125 -9.160156 1.65625 -10.203125 C 2.195312 -11.253906 2.96875 -12.070312 3.96875 -12.65625 C 4.96875 -13.25 6.148438 -13.546875 7.515625 -13.546875 C 9.078125 -13.546875 10.367188 -13.171875 11.390625 -12.421875 C 12.421875 -11.671875 13.085938 -10.640625 13.390625 -9.328125 L 10.671875 -9.328125 C 10.472656 -9.953125 10.101562 -10.4375 9.5625 -10.78125 C 9.03125 -11.125 8.347656 -11.296875 7.515625 -11.296875 C 6.179688 -11.296875 5.148438 -10.875 4.421875 -10.03125 C 3.703125 -9.1875 3.34375 -8.03125 3.34375 -6.5625 C 3.34375 -5.09375 3.703125 -3.953125 4.421875 -3.140625 C 5.140625 -2.335938 6.113281 -1.9375 7.34375 -1.9375 C 8.550781 -1.9375 9.460938 -2.265625 10.078125 -2.921875 C 10.691406 -3.578125 11.0625 -4.4375 11.1875 -5.5 L 7.828125 -5.5 L 7.828125 -7.328125 L 13.640625 -7.328125 L 13.640625 0 L 11.40625 0 L 11.203125 -1.75 C 10.773438 -1.113281 10.238281 -0.625 9.59375 -0.28125 C 8.945312 0.0625 8.125 0.234375 7.125 0.234375 Z M 7.125 0.234375 "/></g></g></g><g fill="#ffffff" fill-opacity="1"><g transform="translate(156.006782, 140.85734)"><g/></g></g><g fill="#ffffff" fill-opacity="1"><g transform="translate(160.533435, 140.85734)"><g><path d="M 1.296875 0 L 1.296875 -13.328125 L 6.640625 -13.328125 C 8.023438 -13.328125 9.082031 -13.003906 9.8125 -12.359375 C 10.539062 -11.722656 10.90625 -10.898438 10.90625 -9.890625 C 10.90625 -9.054688 10.675781 -8.390625 10.21875 -7.890625 C 9.769531 -7.390625 9.222656 -7.050781 8.578125 -6.875 C 9.335938 -6.71875 9.960938 -6.335938 10.453125 -5.734375 C 10.953125 -5.128906 11.203125 -4.429688 11.203125 -3.640625 C 11.203125 -2.585938 10.820312 -1.71875 10.0625 -1.03125 C 9.300781 -0.34375 8.222656 0 6.828125 0 Z M 3.734375 -7.734375 L 6.28125 -7.734375 C 6.96875 -7.734375 7.492188 -7.890625 7.859375 -8.203125 C 8.222656 -8.515625 8.40625 -8.960938 8.40625 -9.546875 C 8.40625 -10.109375 8.222656 -10.550781 7.859375 -10.875 C 7.503906 -11.195312 6.96875 -11.359375 6.25 -11.359375 L 3.734375 -11.359375 Z M 3.734375 -1.984375 L 6.453125 -1.984375 C 7.171875 -1.984375 7.726562 -2.148438 8.125 -2.484375 C 8.53125 -2.816406 8.734375 -3.289062 8.734375 -3.90625 C 8.734375 -4.519531 8.523438 -5.003906 8.109375 -5.359375 C 7.691406 -5.722656 7.125 -5.90625 6.40625 -5.90625 L 3.734375 -5.90625 Z M 3.734375 -1.984375 "/></g></g></g><g fill="#ffffff" fill-opacity="1"><g transform="translate(172.534762, 140.85734)"><g><path d="M 7.328125 0.234375 C 5.984375 0.234375 4.828125 -0.0507812 3.859375 -0.625 C 2.898438 -1.207031 2.160156 -2.015625 1.640625 -3.046875 C 1.117188 -4.085938 0.859375 -5.285156 0.859375 -6.640625 C 0.859375 -7.992188 1.117188 -9.191406 1.640625 -10.234375 C 2.160156 -11.273438 2.898438 -12.085938 3.859375 -12.671875 C 4.828125 -13.253906 5.984375 -13.546875 7.328125 -13.546875 C 8.921875 -13.546875 10.226562 -13.148438 11.25 -12.359375 C 12.269531 -11.566406 12.910156 -10.453125 13.171875 -9.015625 L 10.484375 -9.015625 C 10.316406 -9.742188 9.960938 -10.3125 9.421875 -10.71875 C 8.890625 -11.132812 8.175781 -11.34375 7.28125 -11.34375 C 6.050781 -11.34375 5.085938 -10.921875 4.390625 -10.078125 C 3.691406 -9.242188 3.34375 -8.097656 3.34375 -6.640625 C 3.34375 -5.179688 3.691406 -4.035156 4.390625 -3.203125 C 5.085938 -2.367188 6.050781 -1.953125 7.28125 -1.953125 C 8.175781 -1.953125 8.890625 -2.144531 9.421875 -2.53125 C 9.960938 -2.925781 10.316406 -3.46875 10.484375 -4.15625 L 13.171875 -4.15625 C 12.910156 -2.78125 12.269531 -1.703125 11.25 -0.921875 C 10.226562 -0.148438 8.921875 0.234375 7.328125 0.234375 Z M 7.328125 0.234375 "/></g></g></g><g fill="#ffffff" fill-opacity="1"><g transform="translate(186.552159, 140.85734)"><g/></g></g><g fill="#ffffff" fill-opacity="1"><g transform="translate(191.078813, 140.85734)"><g><path d="M 5.84375 0.234375 C 4.863281 0.234375 4 0.0664062 3.25 -0.265625 C 2.5 -0.609375 1.910156 -1.09375 1.484375 -1.71875 C 1.054688 -2.351562 0.832031 -3.117188 0.8125 -4.015625 L 3.390625 -4.015625 C 3.410156 -3.390625 3.632812 -2.863281 4.0625 -2.4375 C 4.488281 -2.019531 5.078125 -1.8125 5.828125 -1.8125 C 6.472656 -1.8125 6.984375 -1.960938 7.359375 -2.265625 C 7.742188 -2.578125 7.9375 -2.992188 7.9375 -3.515625 C 7.9375 -4.066406 7.765625 -4.492188 7.421875 -4.796875 C 7.085938 -5.097656 6.640625 -5.34375 6.078125 -5.53125 C 5.523438 -5.726562 4.929688 -5.929688 4.296875 -6.140625 C 3.273438 -6.503906 2.492188 -6.960938 1.953125 -7.515625 C 1.410156 -8.078125 1.140625 -8.820312 1.140625 -9.75 C 1.128906 -10.53125 1.316406 -11.203125 1.703125 -11.765625 C 2.085938 -12.335938 2.613281 -12.773438 3.28125 -13.078125 C 3.957031 -13.390625 4.734375 -13.546875 5.609375 -13.546875 C 6.503906 -13.546875 7.289062 -13.382812 7.96875 -13.0625 C 8.644531 -12.75 9.175781 -12.304688 9.5625 -11.734375 C 9.945312 -11.171875 10.15625 -10.492188 10.1875 -9.703125 L 7.578125 -9.703125 C 7.566406 -10.171875 7.382812 -10.585938 7.03125 -10.953125 C 6.6875 -11.316406 6.203125 -11.5 5.578125 -11.5 C 5.046875 -11.507812 4.597656 -11.378906 4.234375 -11.109375 C 3.867188 -10.835938 3.6875 -10.441406 3.6875 -9.921875 C 3.6875 -9.472656 3.828125 -9.117188 4.109375 -8.859375 C 4.390625 -8.597656 4.769531 -8.378906 5.25 -8.203125 C 5.726562 -8.023438 6.28125 -7.832031 6.90625 -7.625 C 7.5625 -7.394531 8.160156 -7.128906 8.703125 -6.828125 C 9.253906 -6.523438 9.695312 -6.125 10.03125 -5.625 C 10.363281 -5.125 10.53125 -4.476562 10.53125 -3.6875 C 10.53125 -2.988281 10.347656 -2.34375 9.984375 -1.75 C 9.628906 -1.15625 9.101562 -0.675781 8.40625 -0.3125 C 7.707031 0.0507812 6.851562 0.234375 5.84375 0.234375 Z M 5.84375 0.234375 "/></g></g></g><g fill="#ffffff" fill-opacity="1"><g transform="translate(202.43348, 140.85734)"><g><path d="M 1.296875 0 L 1.296875 -13.328125 L 3.734375 -13.328125 L 3.734375 0 Z M 1.296875 0 "/></g></g></g><g fill="#ffffff" fill-opacity="1"><g transform="translate(207.454643, 140.85734)"><g><path d="M 1.296875 0 L 1.296875 -13.328125 L 3.734375 -13.328125 L 9.984375 -3.9375 L 9.984375 -13.328125 L 12.421875 -13.328125 L 12.421875 0 L 9.984375 0 L 3.734375 -9.359375 L 3.734375 0 Z M 1.296875 0 "/></g></g></g><g fill="#ffffff" fill-opacity="1"><g transform="translate(221.167732, 140.85734)"><g><path d="M 7.328125 0.234375 C 5.984375 0.234375 4.828125 -0.0507812 3.859375 -0.625 C 2.898438 -1.207031 2.160156 -2.015625 1.640625 -3.046875 C 1.117188 -4.085938 0.859375 -5.285156 0.859375 -6.640625 C 0.859375 -7.992188 1.117188 -9.191406 1.640625 -10.234375 C 2.160156 -11.273438 2.898438 -12.085938 3.859375 -12.671875 C 4.828125 -13.253906 5.984375 -13.546875 7.328125 -13.546875 C 8.921875 -13.546875 10.226562 -13.148438 11.25 -12.359375 C 12.269531 -11.566406 12.910156 -10.453125 13.171875 -9.015625 L 10.484375 -9.015625 C 10.316406 -9.742188 9.960938 -10.3125 9.421875 -10.71875 C 8.890625 -11.132812 8.175781 -11.34375 7.28125 -11.34375 C 6.050781 -11.34375 5.085938 -10.921875 4.390625 -10.078125 C 3.691406 -9.242188 3.34375 -8.097656 3.34375 -6.640625 C 3.34375 -5.179688 3.691406 -4.035156 4.390625 -3.203125 C 5.085938 -2.367188 6.050781 -1.953125 7.28125 -1.953125 C 8.175781 -1.953125 8.890625 -2.144531 9.421875 -2.53125 C 9.960938 -2.925781 10.316406 -3.46875 10.484375 -4.15625 L 13.171875 -4.15625 C 12.910156 -2.78125 12.269531 -1.703125 11.25 -0.921875 C 10.226562 -0.148438 8.921875 0.234375 7.328125 0.234375 Z M 7.328125 0.234375 "/></g></g></g><g fill="#ffffff" fill-opacity="1"><g transform="translate(235.18513, 140.85734)"><g><path d="M 1.296875 0 L 1.296875 -13.328125 L 9.984375 -13.328125 L 9.984375 -11.359375 L 3.734375 -11.359375 L 3.734375 -7.703125 L 9.421875 -7.703125 L 9.421875 -5.796875 L 3.734375 -5.796875 L 3.734375 -1.953125 L 9.984375 -1.953125 L 9.984375 0 Z M 1.296875 0 "/></g></g></g><g fill="#ffffff" fill-opacity="1"><g transform="translate(246.178427, 140.85734)"><g/></g></g><g fill="#ffffff" fill-opacity="1"><g transform="translate(250.70508, 140.85734)"><g><path d="M 0.96875 0 L 0.96875 -1.765625 C 1.78125 -2.441406 2.566406 -3.109375 3.328125 -3.765625 C 4.097656 -4.429688 4.785156 -5.085938 5.390625 -5.734375 C 5.992188 -6.378906 6.476562 -7.007812 6.84375 -7.625 C 7.207031 -8.238281 7.390625 -8.835938 7.390625 -9.421875 C 7.390625 -9.960938 7.238281 -10.441406 6.9375 -10.859375 C 6.632812 -11.285156 6.144531 -11.5 5.46875 -11.5 C 4.769531 -11.5 4.238281 -11.269531 3.875 -10.8125 C 3.519531 -10.351562 3.34375 -9.800781 3.34375 -9.15625 L 0.984375 -9.15625 C 1.015625 -10.132812 1.234375 -10.945312 1.640625 -11.59375 C 2.046875 -12.25 2.582031 -12.738281 3.25 -13.0625 C 3.925781 -13.382812 4.679688 -13.546875 5.515625 -13.546875 C 6.878906 -13.546875 7.9375 -13.175781 8.6875 -12.4375 C 9.4375 -11.695312 9.8125 -10.734375 9.8125 -9.546875 C 9.8125 -8.816406 9.644531 -8.101562 9.3125 -7.40625 C 8.976562 -6.707031 8.535156 -6.035156 7.984375 -5.390625 C 7.441406 -4.742188 6.851562 -4.132812 6.21875 -3.5625 C 5.582031 -3 4.96875 -2.476562 4.375 -2 L 10.140625 -2 L 10.140625 0 Z M 0.96875 0 "/></g></g></g><g fill="#ffffff" fill-opacity="1"><g transform="translate(261.565236, 140.85734)"><g><path d="M 6.75 0.234375 C 5.519531 0.234375 4.46875 -0.0507812 3.59375 -0.625 C 2.71875 -1.207031 2.039062 -2.015625 1.5625 -3.046875 C 1.09375 -4.085938 0.859375 -5.289062 0.859375 -6.65625 C 0.859375 -8.019531 1.09375 -9.21875 1.5625 -10.25 C 2.039062 -11.289062 2.71875 -12.097656 3.59375 -12.671875 C 4.46875 -13.253906 5.519531 -13.546875 6.75 -13.546875 C 7.988281 -13.546875 9.046875 -13.253906 9.921875 -12.671875 C 10.796875 -12.097656 11.46875 -11.289062 11.9375 -10.25 C 12.414062 -9.21875 12.65625 -8.019531 12.65625 -6.65625 C 12.65625 -5.289062 12.414062 -4.085938 11.9375 -3.046875 C 11.46875 -2.015625 10.796875 -1.207031 9.921875 -0.625 C 9.046875 -0.0507812 7.988281 0.234375 6.75 0.234375 Z M 6.75 -1.953125 C 7.757812 -1.953125 8.578125 -2.367188 9.203125 -3.203125 C 9.835938 -4.046875 10.15625 -5.195312 10.15625 -6.65625 C 10.15625 -8.113281 9.835938 -9.257812 9.203125 -10.09375 C 8.578125 -10.9375 7.757812 -11.359375 6.75 -11.359375 C 5.738281 -11.359375 4.914062 -10.9375 4.28125 -10.09375 C 3.65625 -9.257812 3.34375 -8.113281 3.34375 -6.65625 C 3.34375 -5.195312 3.65625 -4.046875 4.28125 -3.203125 C 4.914062 -2.367188 5.738281 -1.953125 6.75 -1.953125 Z M 6.75 -1.953125 "/></g></g></g><g fill="#ffffff" fill-opacity="1"><g transform="translate(275.069103, 140.85734)"><g><path d="M 6.75 0.234375 C 5.519531 0.234375 4.46875 -0.0507812 3.59375 -0.625 C 2.71875 -1.207031 2.039062 -2.015625 1.5625 -3.046875 C 1.09375 -4.085938 0.859375 -5.289062 0.859375 -6.65625 C 0.859375 -8.019531 1.09375 -9.21875 1.5625 -10.25 C 2.039062 -11.289062 2.71875 -12.097656 3.59375 -12.671875 C 4.46875 -13.253906 5.519531 -13.546875 6.75 -13.546875 C 7.988281 -13.546875 9.046875 -13.253906 9.921875 -12.671875 C 10.796875 -12.097656 11.46875 -11.289062 11.9375 -10.25 C 12.414062 -9.21875 12.65625 -8.019531 12.65625 -6.65625 C 12.65625 -5.289062 12.414062 -4.085938 11.9375 -3.046875 C 11.46875 -2.015625 10.796875 -1.207031 9.921875 -0.625 C 9.046875 -0.0507812 7.988281 0.234375 6.75 0.234375 Z M 6.75 -1.953125 C 7.757812 -1.953125 8.578125 -2.367188 9.203125 -3.203125 C 9.835938 -4.046875 10.15625 -5.195312 10.15625 -6.65625 C 10.15625 -8.113281 9.835938 -9.257812 9.203125 -10.09375 C 8.578125 -10.9375 7.757812 -11.359375 6.75 -11.359375 C 5.738281 -11.359375 4.914062 -10.9375 4.28125 -10.09375 C 3.65625 -9.257812 3.34375 -8.113281 3.34375 -6.65625 C 3.34375 -5.195312 3.65625 -4.046875 4.28125 -3.203125 C 4.914062 -2.367188 5.738281 -1.953125 6.75 -1.953125 Z M 6.75 -1.953125 "/></g></g></g><g fill="#ffffff" fill-opacity="1"><g transform="translate(288.572993, 140.85734)"><g><path d="M 5.65625 0.234375 C 4.78125 0.234375 3.984375 0.078125 3.265625 -0.234375 C 2.554688 -0.546875 1.984375 -1.023438 1.546875 -1.671875 C 1.117188 -2.316406 0.894531 -3.128906 0.875 -4.109375 L 3.265625 -4.109375 C 3.285156 -3.460938 3.5 -2.921875 3.90625 -2.484375 C 4.320312 -2.046875 4.90625 -1.828125 5.65625 -1.828125 C 6.363281 -1.828125 6.90625 -2.019531 7.28125 -2.40625 C 7.664062 -2.800781 7.859375 -3.300781 7.859375 -3.90625 C 7.859375 -4.601562 7.609375 -5.128906 7.109375 -5.484375 C 6.609375 -5.847656 5.960938 -6.03125 5.171875 -6.03125 L 4.1875 -6.03125 L 4.1875 -8.03125 L 5.203125 -8.03125 C 5.847656 -8.03125 6.382812 -8.179688 6.8125 -8.484375 C 7.238281 -8.785156 7.453125 -9.238281 7.453125 -9.84375 C 7.453125 -10.332031 7.289062 -10.722656 6.96875 -11.015625 C 6.644531 -11.316406 6.203125 -11.46875 5.640625 -11.46875 C 5.015625 -11.46875 4.523438 -11.285156 4.171875 -10.921875 C 3.828125 -10.554688 3.632812 -10.109375 3.59375 -9.578125 L 1.21875 -9.578125 C 1.269531 -10.804688 1.695312 -11.773438 2.5 -12.484375 C 3.3125 -13.191406 4.359375 -13.546875 5.640625 -13.546875 C 6.546875 -13.546875 7.3125 -13.382812 7.9375 -13.0625 C 8.570312 -12.738281 9.050781 -12.3125 9.375 -11.78125 C 9.695312 -11.25 9.859375 -10.660156 9.859375 -10.015625 C 9.859375 -9.265625 9.648438 -8.628906 9.234375 -8.109375 C 8.828125 -7.597656 8.316406 -7.253906 7.703125 -7.078125 C 8.453125 -6.921875 9.0625 -6.554688 9.53125 -5.984375 C 10 -5.410156 10.234375 -4.6875 10.234375 -3.8125 C 10.234375 -3.070312 10.054688 -2.394531 9.703125 -1.78125 C 9.347656 -1.175781 8.832031 -0.6875 8.15625 -0.3125 C 7.476562 0.0507812 6.644531 0.234375 5.65625 0.234375 Z M 5.65625 0.234375 "/></g></g></g></svg>